<?xml version="1.0" encoding="utf-8"?>
<!-- Generator: Adobe Illustrator 18.1.1, SVG Export Plug-In . SVG Version: 6.00 Build 0)  -->
<svg version="1.1" id="Layer_1" xmlns="http://www.w3.org/2000/svg" xmlns:xlink="http://www.w3.org/1999/xlink" x="0px" y="0px"
	 viewBox="0 0 500 500" enable-background="new 0 0 500 500" xml:space="preserve">
<path fill="#8CC04D" d="M349.6,318.4c-12.3,6.9-55.2,24.9-55.2,24.9l-50.7-3.7c0,0,29-9.4,40.3-12.3c11.3-2.9,6.4-17.7,0.1-17.7
	c-6.2,0-60.5,2.6-60.5,2.6l-36.1,15.1l9.5,70.2c0,0,7.4-14.8,14.8-14.8c7.4,0,71.8,2,80.6,0c8.7-2,62-44.3,68.4-49.3
	C367,328.6,361.9,311.5,349.6,318.4z"/>
<polygon fill="#8CC04D" points="142.5,336.2 142.5,404.5 190.7,395.5 178.6,329.8 "/>
<g>
	<path fill="#8CC04D" d="M361.7,76.5c-8.5-14.1-25.1-22.3-45.6-22.3c-14.6,0-27.7,6.4-38.5,14.6C268,58.2,249.5,48.5,229.8,49
		c-12.8,0.3-30.9,5.1-44.6,25.7c-7.1,10.6-9.3,21.9-6.5,33.4c5.3,21.8,27.5,38,36.8,44v54c0,4.4,3.6,8,8,8h105.5c4.4,0,8-3.6,8-8
		v-58.1c9.6-4.8,17.7-11.5,22.5-20.6C369.4,108.8,370.2,90.7,361.7,76.5z M345.4,120c-13.2,24.9-69.6,25.9-90.2,24.2
		c-4.4-0.4-8.2,2.9-8.6,7.3c-0.4,4.4,2.9,8.3,7.3,8.6c0.9,0.1,6.9,0.5,15.7,0.5c13.4,0,33.3-1.1,51.4-6.4v44h-89.5v-50.5
		c0-2.9-1.6-5.6-4.1-7c-0.3-0.2-28.2-15.9-33.2-36.4c-1.7-7.1-0.3-13.9,4.2-20.8c8-12,18.7-18.3,31.8-18.6
		c14.2-0.3,28.6,6.8,35.5,14.4c-10.9,11-17.4,21.7-18,22.6c-2.3,3.8-1.1,8.7,2.7,10.9c3.8,2.3,8.7,1.1,11-2.7
		c0.2-0.4,24.7-40,54.8-40c14.7,0,26.4,5.3,31.9,14.5C353.5,93.9,352.6,106.5,345.4,120z"/>
</g>
<path fill="#8CC04D" d="M372.9,228.2H211.1c-1.1,0-2.2,0-3.3,0c-1.3,0-2.6,0-3.9,0c-9.2,0-33.5,0-33.5,33.9
	c0,22.4,13.9,33.8,41.2,33.8l161.3,0v-15.1l-161.3,0c-19,0-26.1-5.1-26.1-18.7c0-17.5,7-18.8,18.4-18.8c1.2,0,2.4,0,3.6,0
	c1.2,0,2.4,0,3.6,0h161.8L372.9,228.2L372.9,228.2z"/>
<rect x="202.1" y="249.2" fill="#8CC04D" width="161.4" height="3.8"/>
<rect x="202.1" y="259.7" fill="#8CC04D" width="161.4" height="3.8"/>
<rect x="202.1" y="270.9" fill="#8CC04D" width="161.4" height="3.8"/>
</svg>
